<mxfile host="app.diagrams.net" agent="Mozilla/5.0 (Macintosh; Intel Mac OS X 10_15_7) AppleWebKit/537.36 (KHTML, like Gecko) Chrome/140.0.0.0 Safari/537.36" version="28.2.5">
  <diagram name="Page-1" id="JDTzDwTY6pmd_DErDWuj">
    <mxGraphModel grid="1" page="1" gridSize="10" guides="1" tooltips="1" connect="1" arrows="1" fold="1" pageScale="1" pageWidth="850" pageHeight="1100" math="0" shadow="0">
      <root>
        <mxCell id="0" />
        <mxCell id="1" parent="0" />
        <mxCell id="UwS1MEFsbQw_2gHrzj-6-53" value="" style="rounded=0;whiteSpace=wrap;html=1;" vertex="1" parent="1">
          <mxGeometry x="-460" y="-270" width="1990" height="1530" as="geometry" />
        </mxCell>
        <mxCell id="QzYXIBhvmvIXl9ghYJ5j-2" value="" style="rounded=0;whiteSpace=wrap;html=1;fillColor=#f5f5f5;fontColor=#333333;strokeColor=#666666;" vertex="1" parent="1">
          <mxGeometry x="-230" y="70" width="1650" height="380" as="geometry" />
        </mxCell>
        <mxCell id="QzYXIBhvmvIXl9ghYJ5j-3" value="" style="rounded=0;whiteSpace=wrap;html=1;fillColor=#f5f5f5;fontColor=#333333;strokeColor=#666666;" vertex="1" parent="1">
          <mxGeometry x="-230" y="530" width="1650" height="380" as="geometry" />
        </mxCell>
        <mxCell id="QzYXIBhvmvIXl9ghYJ5j-4" value="" style="rounded=0;whiteSpace=wrap;html=1;fillColor=#f5f5f5;fontColor=#333333;strokeColor=#666666;" vertex="1" parent="1">
          <mxGeometry x="-230" y="970" width="1650" height="220" as="geometry" />
        </mxCell>
        <mxCell id="QzYXIBhvmvIXl9ghYJ5j-18" style="edgeStyle=orthogonalEdgeStyle;rounded=0;orthogonalLoop=1;jettySize=auto;html=1;exitX=0.5;exitY=1;exitDx=0;exitDy=0;entryX=0;entryY=0.5;entryDx=0;entryDy=0;" edge="1" parent="1" source="QzYXIBhvmvIXl9ghYJ5j-5" target="QzYXIBhvmvIXl9ghYJ5j-6">
          <mxGeometry relative="1" as="geometry" />
        </mxCell>
        <mxCell id="QzYXIBhvmvIXl9ghYJ5j-5" value="AUTH Handlers" style="rounded=1;whiteSpace=wrap;html=1;" vertex="1" parent="1">
          <mxGeometry x="-170" y="100" width="120" height="60" as="geometry" />
        </mxCell>
        <mxCell id="QzYXIBhvmvIXl9ghYJ5j-6" value="AUTH Service" style="rounded=1;whiteSpace=wrap;html=1;fillColor=#dae8fc;strokeColor=#6c8ebf;dashed=1;" vertex="1" parent="1">
          <mxGeometry x="-80" y="250" width="120" height="60" as="geometry" />
        </mxCell>
        <mxCell id="QzYXIBhvmvIXl9ghYJ5j-9" style="edgeStyle=orthogonalEdgeStyle;rounded=0;orthogonalLoop=1;jettySize=auto;html=1;exitX=0;exitY=0.5;exitDx=0;exitDy=0;" edge="1" parent="1" source="QzYXIBhvmvIXl9ghYJ5j-8" target="QzYXIBhvmvIXl9ghYJ5j-6">
          <mxGeometry relative="1" as="geometry" />
        </mxCell>
        <mxCell id="QzYXIBhvmvIXl9ghYJ5j-11" style="edgeStyle=orthogonalEdgeStyle;rounded=0;orthogonalLoop=1;jettySize=auto;html=1;exitX=0.25;exitY=1;exitDx=0;exitDy=0;entryX=0.5;entryY=0;entryDx=0;entryDy=0;" edge="1" parent="1" source="QzYXIBhvmvIXl9ghYJ5j-8" target="QzYXIBhvmvIXl9ghYJ5j-10">
          <mxGeometry relative="1" as="geometry" />
        </mxCell>
        <mxCell id="QzYXIBhvmvIXl9ghYJ5j-13" style="edgeStyle=orthogonalEdgeStyle;rounded=0;orthogonalLoop=1;jettySize=auto;html=1;exitX=0.5;exitY=1;exitDx=0;exitDy=0;" edge="1" parent="1" source="QzYXIBhvmvIXl9ghYJ5j-8" target="QzYXIBhvmvIXl9ghYJ5j-12">
          <mxGeometry relative="1" as="geometry" />
        </mxCell>
        <mxCell id="QzYXIBhvmvIXl9ghYJ5j-15" style="edgeStyle=orthogonalEdgeStyle;rounded=0;orthogonalLoop=1;jettySize=auto;html=1;exitX=0.5;exitY=1;exitDx=0;exitDy=0;" edge="1" parent="1" source="QzYXIBhvmvIXl9ghYJ5j-8" target="QzYXIBhvmvIXl9ghYJ5j-14">
          <mxGeometry relative="1" as="geometry" />
        </mxCell>
        <mxCell id="QzYXIBhvmvIXl9ghYJ5j-17" style="edgeStyle=orthogonalEdgeStyle;rounded=0;orthogonalLoop=1;jettySize=auto;html=1;exitX=0.75;exitY=1;exitDx=0;exitDy=0;" edge="1" parent="1" source="QzYXIBhvmvIXl9ghYJ5j-8" target="QzYXIBhvmvIXl9ghYJ5j-16">
          <mxGeometry relative="1" as="geometry" />
        </mxCell>
        <mxCell id="QzYXIBhvmvIXl9ghYJ5j-20" style="edgeStyle=orthogonalEdgeStyle;rounded=0;orthogonalLoop=1;jettySize=auto;html=1;exitX=1;exitY=0.5;exitDx=0;exitDy=0;entryX=0.5;entryY=0;entryDx=0;entryDy=0;" edge="1" parent="1" source="QzYXIBhvmvIXl9ghYJ5j-8" target="QzYXIBhvmvIXl9ghYJ5j-19">
          <mxGeometry relative="1" as="geometry" />
        </mxCell>
        <mxCell id="QzYXIBhvmvIXl9ghYJ5j-8" value="AUTH middleware" style="rounded=1;whiteSpace=wrap;html=1;" vertex="1" parent="1">
          <mxGeometry x="170" y="100" width="940" height="60" as="geometry" />
        </mxCell>
        <mxCell id="QzYXIBhvmvIXl9ghYJ5j-26" style="edgeStyle=orthogonalEdgeStyle;rounded=0;orthogonalLoop=1;jettySize=auto;html=1;exitX=0.5;exitY=1;exitDx=0;exitDy=0;entryX=0.5;entryY=0;entryDx=0;entryDy=0;" edge="1" parent="1" source="QzYXIBhvmvIXl9ghYJ5j-10" target="QzYXIBhvmvIXl9ghYJ5j-21">
          <mxGeometry relative="1" as="geometry" />
        </mxCell>
        <mxCell id="QzYXIBhvmvIXl9ghYJ5j-10" value="User setting handlers&lt;div&gt;(CRUDs)&lt;/div&gt;" style="rounded=1;whiteSpace=wrap;html=1;" vertex="1" parent="1">
          <mxGeometry x="110" y="220" width="130" height="60" as="geometry" />
        </mxCell>
        <mxCell id="QzYXIBhvmvIXl9ghYJ5j-27" style="edgeStyle=orthogonalEdgeStyle;rounded=0;orthogonalLoop=1;jettySize=auto;html=1;exitX=0.5;exitY=1;exitDx=0;exitDy=0;entryX=0.5;entryY=0;entryDx=0;entryDy=0;" edge="1" parent="1" source="QzYXIBhvmvIXl9ghYJ5j-12" target="QzYXIBhvmvIXl9ghYJ5j-22">
          <mxGeometry relative="1" as="geometry" />
        </mxCell>
        <mxCell id="QzYXIBhvmvIXl9ghYJ5j-12" value="Group handlers&lt;div&gt;(CRUD + add user/delete user)&lt;/div&gt;" style="rounded=1;whiteSpace=wrap;html=1;" vertex="1" parent="1">
          <mxGeometry x="335" y="210" width="180" height="80" as="geometry" />
        </mxCell>
        <mxCell id="QzYXIBhvmvIXl9ghYJ5j-28" style="edgeStyle=orthogonalEdgeStyle;rounded=0;orthogonalLoop=1;jettySize=auto;html=1;exitX=0.5;exitY=1;exitDx=0;exitDy=0;entryX=0.5;entryY=0;entryDx=0;entryDy=0;" edge="1" parent="1" source="QzYXIBhvmvIXl9ghYJ5j-14" target="QzYXIBhvmvIXl9ghYJ5j-23">
          <mxGeometry relative="1" as="geometry" />
        </mxCell>
        <mxCell id="QzYXIBhvmvIXl9ghYJ5j-14" value="Document handlers&lt;div&gt;(CRUD)&lt;/div&gt;" style="rounded=1;whiteSpace=wrap;html=1;" vertex="1" parent="1">
          <mxGeometry x="620" y="210" width="190" height="80" as="geometry" />
        </mxCell>
        <mxCell id="QzYXIBhvmvIXl9ghYJ5j-29" style="edgeStyle=orthogonalEdgeStyle;rounded=0;orthogonalLoop=1;jettySize=auto;html=1;exitX=0.5;exitY=1;exitDx=0;exitDy=0;" edge="1" parent="1" source="QzYXIBhvmvIXl9ghYJ5j-16" target="QzYXIBhvmvIXl9ghYJ5j-24">
          <mxGeometry relative="1" as="geometry" />
        </mxCell>
        <mxCell id="QzYXIBhvmvIXl9ghYJ5j-16" value="Share Link handlers&lt;div&gt;(CRUD)&lt;/div&gt;" style="rounded=1;whiteSpace=wrap;html=1;" vertex="1" parent="1">
          <mxGeometry x="840" y="220" width="190" height="60" as="geometry" />
        </mxCell>
        <mxCell id="QzYXIBhvmvIXl9ghYJ5j-30" style="edgeStyle=orthogonalEdgeStyle;rounded=0;orthogonalLoop=1;jettySize=auto;html=1;exitX=0.5;exitY=1;exitDx=0;exitDy=0;entryX=0.5;entryY=0;entryDx=0;entryDy=0;" edge="1" parent="1" source="QzYXIBhvmvIXl9ghYJ5j-19" target="QzYXIBhvmvIXl9ghYJ5j-25">
          <mxGeometry relative="1" as="geometry" />
        </mxCell>
        <mxCell id="QzYXIBhvmvIXl9ghYJ5j-19" value="WebSocket Events Handler" style="rounded=1;whiteSpace=wrap;html=1;" vertex="1" parent="1">
          <mxGeometry x="1090" y="220" width="120" height="60" as="geometry" />
        </mxCell>
        <mxCell id="QzYXIBhvmvIXl9ghYJ5j-21" value="User Service" style="rounded=1;whiteSpace=wrap;html=1;fillColor=#dae8fc;strokeColor=#6c8ebf;dashed=1;" vertex="1" parent="1">
          <mxGeometry x="115" y="350" width="120" height="60" as="geometry" />
        </mxCell>
        <mxCell id="QzYXIBhvmvIXl9ghYJ5j-22" value="Group Service" style="rounded=1;whiteSpace=wrap;html=1;fillColor=#dae8fc;strokeColor=#6c8ebf;dashed=1;" vertex="1" parent="1">
          <mxGeometry x="365" y="360" width="120" height="60" as="geometry" />
        </mxCell>
        <mxCell id="QzYXIBhvmvIXl9ghYJ5j-23" value="Document Service" style="rounded=1;whiteSpace=wrap;html=1;fillColor=#dae8fc;strokeColor=#6c8ebf;dashed=1;" vertex="1" parent="1">
          <mxGeometry x="655" y="360" width="120" height="60" as="geometry" />
        </mxCell>
        <mxCell id="QzYXIBhvmvIXl9ghYJ5j-24" value="Share Link Service" style="rounded=1;whiteSpace=wrap;html=1;fillColor=#dae8fc;strokeColor=#6c8ebf;dashed=1;" vertex="1" parent="1">
          <mxGeometry x="875" y="360" width="120" height="60" as="geometry" />
        </mxCell>
        <mxCell id="QzYXIBhvmvIXl9ghYJ5j-25" value="Document&#39;s Event Dispatcher Service" style="rounded=1;whiteSpace=wrap;html=1;fillColor=#dae8fc;strokeColor=#6c8ebf;dashed=1;" vertex="1" parent="1">
          <mxGeometry x="1090" y="360" width="120" height="60" as="geometry" />
        </mxCell>
        <mxCell id="UwS1MEFsbQw_2gHrzj-6-1" value="Application Interface Layer" style="text;html=1;align=center;verticalAlign=middle;whiteSpace=wrap;rounded=0;fontSize=23;" vertex="1" parent="1">
          <mxGeometry x="-430" y="195" width="190" height="130" as="geometry" />
        </mxCell>
        <mxCell id="UwS1MEFsbQw_2gHrzj-6-10" style="rounded=0;orthogonalLoop=1;jettySize=auto;html=1;exitX=0.5;exitY=0;exitDx=0;exitDy=0;dashed=1;strokeWidth=2;" edge="1" parent="1" source="UwS1MEFsbQw_2gHrzj-6-3" target="QzYXIBhvmvIXl9ghYJ5j-21">
          <mxGeometry relative="1" as="geometry" />
        </mxCell>
        <mxCell id="UwS1MEFsbQw_2gHrzj-6-21" style="edgeStyle=orthogonalEdgeStyle;rounded=0;orthogonalLoop=1;jettySize=auto;html=1;exitX=0.5;exitY=1;exitDx=0;exitDy=0;entryX=0.5;entryY=0;entryDx=0;entryDy=0;" edge="1" parent="1" source="UwS1MEFsbQw_2gHrzj-6-3" target="UwS1MEFsbQw_2gHrzj-6-6">
          <mxGeometry relative="1" as="geometry" />
        </mxCell>
        <mxCell id="UwS1MEFsbQw_2gHrzj-6-3" value="User Service" style="rounded=1;whiteSpace=wrap;html=1;" vertex="1" parent="1">
          <mxGeometry x="90" y="580" width="150" height="70" as="geometry" />
        </mxCell>
        <mxCell id="UwS1MEFsbQw_2gHrzj-6-7" style="edgeStyle=orthogonalEdgeStyle;rounded=0;orthogonalLoop=1;jettySize=auto;html=1;exitX=0.5;exitY=1;exitDx=0;exitDy=0;entryX=0;entryY=0.5;entryDx=0;entryDy=0;" edge="1" parent="1" source="UwS1MEFsbQw_2gHrzj-6-5" target="UwS1MEFsbQw_2gHrzj-6-6">
          <mxGeometry relative="1" as="geometry" />
        </mxCell>
        <mxCell id="UwS1MEFsbQw_2gHrzj-6-9" style="rounded=0;orthogonalLoop=1;jettySize=auto;html=1;exitX=0.5;exitY=0;exitDx=0;exitDy=0;entryX=0.5;entryY=1;entryDx=0;entryDy=0;dashed=1;strokeWidth=2;" edge="1" parent="1" source="UwS1MEFsbQw_2gHrzj-6-5" target="QzYXIBhvmvIXl9ghYJ5j-6">
          <mxGeometry relative="1" as="geometry" />
        </mxCell>
        <mxCell id="UwS1MEFsbQw_2gHrzj-6-5" value="AUTH Serive" style="rounded=1;whiteSpace=wrap;html=1;" vertex="1" parent="1">
          <mxGeometry x="-120" y="580" width="150" height="70" as="geometry" />
        </mxCell>
        <mxCell id="UwS1MEFsbQw_2gHrzj-6-6" value="User Repo" style="rounded=1;whiteSpace=wrap;html=1;fillColor=#dae8fc;strokeColor=#6c8ebf;dashed=1;" vertex="1" parent="1">
          <mxGeometry x="105" y="760" width="120" height="60" as="geometry" />
        </mxCell>
        <mxCell id="UwS1MEFsbQw_2gHrzj-6-14" style="rounded=0;orthogonalLoop=1;jettySize=auto;html=1;exitX=0.5;exitY=0;exitDx=0;exitDy=0;dashed=1;strokeWidth=2;" edge="1" parent="1" source="UwS1MEFsbQw_2gHrzj-6-11" target="QzYXIBhvmvIXl9ghYJ5j-22">
          <mxGeometry relative="1" as="geometry" />
        </mxCell>
        <mxCell id="UwS1MEFsbQw_2gHrzj-6-22" style="edgeStyle=orthogonalEdgeStyle;rounded=0;orthogonalLoop=1;jettySize=auto;html=1;exitX=0;exitY=0.5;exitDx=0;exitDy=0;entryX=1;entryY=0.5;entryDx=0;entryDy=0;" edge="1" parent="1" source="UwS1MEFsbQw_2gHrzj-6-11" target="UwS1MEFsbQw_2gHrzj-6-6">
          <mxGeometry relative="1" as="geometry" />
        </mxCell>
        <mxCell id="UwS1MEFsbQw_2gHrzj-6-24" style="edgeStyle=orthogonalEdgeStyle;rounded=0;orthogonalLoop=1;jettySize=auto;html=1;exitX=0.5;exitY=1;exitDx=0;exitDy=0;entryX=0;entryY=0.5;entryDx=0;entryDy=0;" edge="1" parent="1" source="UwS1MEFsbQw_2gHrzj-6-11" target="UwS1MEFsbQw_2gHrzj-6-12">
          <mxGeometry relative="1" as="geometry" />
        </mxCell>
        <mxCell id="UwS1MEFsbQw_2gHrzj-6-11" value="Group Service" style="rounded=1;whiteSpace=wrap;html=1;" vertex="1" parent="1">
          <mxGeometry x="350" y="580" width="150" height="70" as="geometry" />
        </mxCell>
        <mxCell id="UwS1MEFsbQw_2gHrzj-6-12" value="Group Repo" style="rounded=1;whiteSpace=wrap;html=1;fillColor=#dae8fc;strokeColor=#6c8ebf;dashed=1;" vertex="1" parent="1">
          <mxGeometry x="655" y="770" width="120" height="60" as="geometry" />
        </mxCell>
        <mxCell id="UwS1MEFsbQw_2gHrzj-6-27" style="edgeStyle=orthogonalEdgeStyle;rounded=0;orthogonalLoop=1;jettySize=auto;html=1;exitX=0.5;exitY=1;exitDx=0;exitDy=0;entryX=0.5;entryY=0;entryDx=0;entryDy=0;" edge="1" parent="1" source="UwS1MEFsbQw_2gHrzj-6-16" target="UwS1MEFsbQw_2gHrzj-6-19">
          <mxGeometry relative="1" as="geometry" />
        </mxCell>
        <mxCell id="UwS1MEFsbQw_2gHrzj-6-30" style="edgeStyle=orthogonalEdgeStyle;rounded=0;orthogonalLoop=1;jettySize=auto;html=1;exitX=0;exitY=0.5;exitDx=0;exitDy=0;entryX=1;entryY=0.5;entryDx=0;entryDy=0;" edge="1" parent="1" source="UwS1MEFsbQw_2gHrzj-6-16" target="UwS1MEFsbQw_2gHrzj-6-12">
          <mxGeometry relative="1" as="geometry" />
        </mxCell>
        <mxCell id="UwS1MEFsbQw_2gHrzj-6-31" style="rounded=0;orthogonalLoop=1;jettySize=auto;html=1;exitX=0.5;exitY=0;exitDx=0;exitDy=0;entryX=0.5;entryY=1;entryDx=0;entryDy=0;dashed=1;strokeWidth=2;" edge="1" parent="1" source="UwS1MEFsbQw_2gHrzj-6-16" target="QzYXIBhvmvIXl9ghYJ5j-24">
          <mxGeometry relative="1" as="geometry" />
        </mxCell>
        <mxCell id="UwS1MEFsbQw_2gHrzj-6-16" value="Share Link Service" style="rounded=1;whiteSpace=wrap;html=1;" vertex="1" parent="1">
          <mxGeometry x="870" y="580" width="150" height="70" as="geometry" />
        </mxCell>
        <mxCell id="UwS1MEFsbQw_2gHrzj-6-26" style="rounded=0;orthogonalLoop=1;jettySize=auto;html=1;exitX=0.5;exitY=0;exitDx=0;exitDy=0;entryX=0.5;entryY=1;entryDx=0;entryDy=0;dashed=1;strokeWidth=2;" edge="1" parent="1" source="UwS1MEFsbQw_2gHrzj-6-17" target="QzYXIBhvmvIXl9ghYJ5j-23">
          <mxGeometry relative="1" as="geometry" />
        </mxCell>
        <mxCell id="UwS1MEFsbQw_2gHrzj-6-28" style="edgeStyle=orthogonalEdgeStyle;rounded=0;orthogonalLoop=1;jettySize=auto;html=1;exitX=0.5;exitY=1;exitDx=0;exitDy=0;entryX=0.5;entryY=0;entryDx=0;entryDy=0;" edge="1" parent="1" source="UwS1MEFsbQw_2gHrzj-6-17" target="UwS1MEFsbQw_2gHrzj-6-12">
          <mxGeometry relative="1" as="geometry" />
        </mxCell>
        <mxCell id="UwS1MEFsbQw_2gHrzj-6-29" style="edgeStyle=orthogonalEdgeStyle;rounded=0;orthogonalLoop=1;jettySize=auto;html=1;exitX=0;exitY=0.5;exitDx=0;exitDy=0;entryX=0.5;entryY=0;entryDx=0;entryDy=0;" edge="1" parent="1" source="UwS1MEFsbQw_2gHrzj-6-17" target="UwS1MEFsbQw_2gHrzj-6-18">
          <mxGeometry relative="1" as="geometry" />
        </mxCell>
        <mxCell id="UwS1MEFsbQw_2gHrzj-6-17" value="Document Service" style="rounded=1;whiteSpace=wrap;html=1;" vertex="1" parent="1">
          <mxGeometry x="640" y="580" width="150" height="70" as="geometry" />
        </mxCell>
        <mxCell id="UwS1MEFsbQw_2gHrzj-6-18" value="Document Repo" style="rounded=1;whiteSpace=wrap;html=1;fillColor=#dae8fc;strokeColor=#6c8ebf;dashed=1;" vertex="1" parent="1">
          <mxGeometry x="515" y="680" width="120" height="60" as="geometry" />
        </mxCell>
        <mxCell id="UwS1MEFsbQw_2gHrzj-6-19" value="Share Link Repo" style="rounded=1;whiteSpace=wrap;html=1;fillColor=#dae8fc;strokeColor=#6c8ebf;dashed=1;" vertex="1" parent="1">
          <mxGeometry x="885" y="770" width="120" height="60" as="geometry" />
        </mxCell>
        <mxCell id="UwS1MEFsbQw_2gHrzj-6-33" style="edgeStyle=orthogonalEdgeStyle;rounded=0;orthogonalLoop=1;jettySize=auto;html=1;exitX=0.5;exitY=0;exitDx=0;exitDy=0;entryX=0.5;entryY=1;entryDx=0;entryDy=0;dashed=1;strokeWidth=2;" edge="1" parent="1" source="UwS1MEFsbQw_2gHrzj-6-32" target="QzYXIBhvmvIXl9ghYJ5j-25">
          <mxGeometry relative="1" as="geometry" />
        </mxCell>
        <mxCell id="UwS1MEFsbQw_2gHrzj-6-36" style="edgeStyle=orthogonalEdgeStyle;rounded=0;orthogonalLoop=1;jettySize=auto;html=1;exitX=0.5;exitY=1;exitDx=0;exitDy=0;entryX=0.5;entryY=0;entryDx=0;entryDy=0;" edge="1" parent="1" source="UwS1MEFsbQw_2gHrzj-6-32" target="UwS1MEFsbQw_2gHrzj-6-35">
          <mxGeometry relative="1" as="geometry" />
        </mxCell>
        <mxCell id="UwS1MEFsbQw_2gHrzj-6-38" style="edgeStyle=orthogonalEdgeStyle;rounded=0;orthogonalLoop=1;jettySize=auto;html=1;exitX=0;exitY=0.5;exitDx=0;exitDy=0;" edge="1" parent="1" source="UwS1MEFsbQw_2gHrzj-6-32" target="UwS1MEFsbQw_2gHrzj-6-37">
          <mxGeometry relative="1" as="geometry" />
        </mxCell>
        <mxCell id="UwS1MEFsbQw_2gHrzj-6-32" value="Document`s Event Dispatcher Service" style="rounded=1;whiteSpace=wrap;html=1;" vertex="1" parent="1">
          <mxGeometry x="1230" y="570" width="150" height="70" as="geometry" />
        </mxCell>
        <mxCell id="UwS1MEFsbQw_2gHrzj-6-35" value="&lt;span style=&quot;font-weight: normal;&quot;&gt;Editing Session Repo&lt;/span&gt;" style="rounded=1;whiteSpace=wrap;html=1;fillColor=#dae8fc;strokeColor=#6c8ebf;dashed=1;fontStyle=1" vertex="1" parent="1">
          <mxGeometry x="1235" y="760" width="140" height="60" as="geometry" />
        </mxCell>
        <mxCell id="UwS1MEFsbQw_2gHrzj-6-37" value="User Repo" style="rounded=1;whiteSpace=wrap;html=1;dashed=1;fillColor=#dae8fc;strokeColor=#6c8ebf;" vertex="1" parent="1">
          <mxGeometry x="1050" y="760" width="120" height="60" as="geometry" />
        </mxCell>
        <mxCell id="UwS1MEFsbQw_2gHrzj-6-45" style="rounded=0;orthogonalLoop=1;jettySize=auto;html=1;exitX=0.5;exitY=0;exitDx=0;exitDy=0;entryX=0.5;entryY=1;entryDx=0;entryDy=0;dashed=1;strokeWidth=2;" edge="1" parent="1" source="UwS1MEFsbQw_2gHrzj-6-39" target="UwS1MEFsbQw_2gHrzj-6-18">
          <mxGeometry relative="1" as="geometry" />
        </mxCell>
        <mxCell id="UwS1MEFsbQw_2gHrzj-6-39" value="Document DB Repo" style="rounded=1;whiteSpace=wrap;html=1;" vertex="1" parent="1">
          <mxGeometry x="485" y="1000" width="120" height="60" as="geometry" />
        </mxCell>
        <mxCell id="UwS1MEFsbQw_2gHrzj-6-46" style="rounded=0;orthogonalLoop=1;jettySize=auto;html=1;exitX=0.5;exitY=0;exitDx=0;exitDy=0;entryX=0.5;entryY=1;entryDx=0;entryDy=0;dashed=1;strokeWidth=2;" edge="1" parent="1" source="UwS1MEFsbQw_2gHrzj-6-40" target="UwS1MEFsbQw_2gHrzj-6-12">
          <mxGeometry relative="1" as="geometry" />
        </mxCell>
        <mxCell id="UwS1MEFsbQw_2gHrzj-6-40" value="Document Group Repo" style="rounded=1;whiteSpace=wrap;html=1;" vertex="1" parent="1">
          <mxGeometry x="660" y="1000" width="120" height="60" as="geometry" />
        </mxCell>
        <mxCell id="UwS1MEFsbQw_2gHrzj-6-47" style="edgeStyle=orthogonalEdgeStyle;rounded=0;orthogonalLoop=1;jettySize=auto;html=1;exitX=0.5;exitY=0;exitDx=0;exitDy=0;entryX=0.5;entryY=1;entryDx=0;entryDy=0;dashed=1;strokeWidth=2;" edge="1" parent="1" source="UwS1MEFsbQw_2gHrzj-6-41" target="UwS1MEFsbQw_2gHrzj-6-19">
          <mxGeometry relative="1" as="geometry" />
        </mxCell>
        <mxCell id="UwS1MEFsbQw_2gHrzj-6-41" value="Share Link DB Repo" style="rounded=1;whiteSpace=wrap;html=1;" vertex="1" parent="1">
          <mxGeometry x="885" y="1000" width="120" height="60" as="geometry" />
        </mxCell>
        <mxCell id="UwS1MEFsbQw_2gHrzj-6-48" style="rounded=0;orthogonalLoop=1;jettySize=auto;html=1;exitX=0.5;exitY=0;exitDx=0;exitDy=0;entryX=0.5;entryY=1;entryDx=0;entryDy=0;dashed=1;strokeWidth=2;" edge="1" parent="1" source="UwS1MEFsbQw_2gHrzj-6-42" target="UwS1MEFsbQw_2gHrzj-6-35">
          <mxGeometry relative="1" as="geometry" />
        </mxCell>
        <mxCell id="UwS1MEFsbQw_2gHrzj-6-42" value="Editing Session Cache Repo" style="rounded=1;whiteSpace=wrap;html=1;" vertex="1" parent="1">
          <mxGeometry x="1245" y="1000" width="120" height="60" as="geometry" />
        </mxCell>
        <mxCell id="UwS1MEFsbQw_2gHrzj-6-49" style="edgeStyle=orthogonalEdgeStyle;rounded=0;orthogonalLoop=1;jettySize=auto;html=1;exitX=1;exitY=0.5;exitDx=0;exitDy=0;dashed=1;strokeWidth=2;" edge="1" parent="1" source="UwS1MEFsbQw_2gHrzj-6-43" target="UwS1MEFsbQw_2gHrzj-6-37">
          <mxGeometry relative="1" as="geometry" />
        </mxCell>
        <mxCell id="UwS1MEFsbQw_2gHrzj-6-50" style="edgeStyle=orthogonalEdgeStyle;rounded=0;orthogonalLoop=1;jettySize=auto;html=1;exitX=0;exitY=0.5;exitDx=0;exitDy=0;dashed=1;strokeWidth=2;" edge="1" parent="1" source="UwS1MEFsbQw_2gHrzj-6-43" target="UwS1MEFsbQw_2gHrzj-6-6">
          <mxGeometry relative="1" as="geometry" />
        </mxCell>
        <mxCell id="UwS1MEFsbQw_2gHrzj-6-43" value="User DB Repo" style="rounded=1;whiteSpace=wrap;html=1;" vertex="1" parent="1">
          <mxGeometry x="680" y="1110" width="120" height="60" as="geometry" />
        </mxCell>
        <mxCell id="UwS1MEFsbQw_2gHrzj-6-51" value="Business Layer" style="text;html=1;align=center;verticalAlign=middle;whiteSpace=wrap;rounded=0;fontSize=23;" vertex="1" parent="1">
          <mxGeometry x="-430" y="680" width="190" height="130" as="geometry" />
        </mxCell>
        <mxCell id="UwS1MEFsbQw_2gHrzj-6-52" value="Data Access Layer" style="text;html=1;align=center;verticalAlign=middle;whiteSpace=wrap;rounded=0;fontSize=23;" vertex="1" parent="1">
          <mxGeometry x="-425" y="1015" width="190" height="130" as="geometry" />
        </mxCell>
        <mxCell id="UwS1MEFsbQw_2gHrzj-6-54" value="&lt;font style=&quot;font-size: 31px;&quot;&gt;Backend Architecture Diagram&lt;/font&gt;" style="text;html=1;align=center;verticalAlign=middle;whiteSpace=wrap;rounded=0;" vertex="1" parent="1">
          <mxGeometry x="290" y="-170" width="540" height="110" as="geometry" />
        </mxCell>
        <mxCell id="UwS1MEFsbQw_2gHrzj-6-56" value="" style="rounded=0;whiteSpace=wrap;html=1;fillColor=#f5f5f5;fontColor=#333333;strokeColor=#666666;" vertex="1" parent="1">
          <mxGeometry x="1210" y="-220" width="250" height="210" as="geometry" />
        </mxCell>
        <mxCell id="UwS1MEFsbQw_2gHrzj-6-57" value="&lt;font style=&quot;font-size: 17px;&quot;&gt;Legend&lt;/font&gt;" style="text;html=1;align=center;verticalAlign=middle;whiteSpace=wrap;rounded=0;" vertex="1" parent="1">
          <mxGeometry x="1305" y="-210" width="70" height="30" as="geometry" />
        </mxCell>
        <mxCell id="UwS1MEFsbQw_2gHrzj-6-59" value="" style="rounded=1;whiteSpace=wrap;html=1;fillColor=#dae8fc;strokeColor=#6c8ebf;dashed=1;" vertex="1" parent="1">
          <mxGeometry x="1220" y="-170" width="50" height="20" as="geometry" />
        </mxCell>
        <mxCell id="UwS1MEFsbQw_2gHrzj-6-60" value="" style="rounded=1;whiteSpace=wrap;html=1;" vertex="1" parent="1">
          <mxGeometry x="1220" y="-130" width="50" height="20" as="geometry" />
        </mxCell>
        <mxCell id="UwS1MEFsbQw_2gHrzj-6-61" value="Interface" style="text;html=1;align=center;verticalAlign=middle;whiteSpace=wrap;rounded=0;" vertex="1" parent="1">
          <mxGeometry x="1280" y="-175" width="60" height="30" as="geometry" />
        </mxCell>
        <mxCell id="UwS1MEFsbQw_2gHrzj-6-62" value="Implementation" style="text;html=1;align=center;verticalAlign=middle;whiteSpace=wrap;rounded=0;" vertex="1" parent="1">
          <mxGeometry x="1275" y="-135" width="105" height="30" as="geometry" />
        </mxCell>
        <mxCell id="UwS1MEFsbQw_2gHrzj-6-64" value="" style="endArrow=classic;html=1;rounded=0;" edge="1" parent="1">
          <mxGeometry width="50" height="50" relative="1" as="geometry">
            <mxPoint x="1220" y="-80" as="sourcePoint" />
            <mxPoint x="1280" y="-80" as="targetPoint" />
          </mxGeometry>
        </mxCell>
        <mxCell id="UwS1MEFsbQw_2gHrzj-6-65" value="" style="endArrow=classic;html=1;rounded=0;dashed=1;strokeWidth=2;" edge="1" parent="1">
          <mxGeometry width="50" height="50" relative="1" as="geometry">
            <mxPoint x="1220" y="-40" as="sourcePoint" />
            <mxPoint x="1280" y="-40" as="targetPoint" />
          </mxGeometry>
        </mxCell>
        <mxCell id="UwS1MEFsbQw_2gHrzj-6-66" value="Aggregation" style="text;html=1;align=center;verticalAlign=middle;whiteSpace=wrap;rounded=0;" vertex="1" parent="1">
          <mxGeometry x="1285" y="-90" width="80" height="30" as="geometry" />
        </mxCell>
        <mxCell id="UwS1MEFsbQw_2gHrzj-6-67" value="Implements" style="text;html=1;align=center;verticalAlign=middle;whiteSpace=wrap;rounded=0;" vertex="1" parent="1">
          <mxGeometry x="1285" y="-50" width="80" height="30" as="geometry" />
        </mxCell>
      </root>
    </mxGraphModel>
  </diagram>
</mxfile>
